<svg width="174" height="74" viewBox="0 0 174 74" fill="none" xmlns="http://www.w3.org/2000/svg">
<g filter="url(#filter0_d_13_159)">
<path fill-rule="evenodd" clip-rule="evenodd" d="M12.7693 0.553711C8.35101 0.553711 4.76929 4.13543 4.76929 8.55371V57.446C4.76929 61.8643 8.351 65.446 12.7693 65.446H161.846C166.264 65.446 169.846 61.8643 169.846 57.446V8.55371C169.846 4.13543 166.264 0.553711 161.846 0.553711H12.7693ZM34.2656 28.1328C34.7396 28.4818 35.0078 28.9714 35.0703 29.6016H38.3125C38.2969 28.6484 38.0417 27.8099 37.5469 27.0859C37.0521 26.362 36.3594 25.7969 35.4688 25.3906C34.5833 24.9844 33.5469 24.7812 32.3594 24.7812C31.1927 24.7812 30.151 24.9844 29.2344 25.3906C28.3177 25.7969 27.5964 26.362 27.0703 27.0859C26.5495 27.8099 26.2917 28.6562 26.2969 29.625C26.2917 30.8073 26.6797 31.7474 27.4609 32.4453C28.2422 33.1432 29.3073 33.6562 30.6562 33.9844L32.3984 34.4219C32.9818 34.5625 33.474 34.7188 33.875 34.8906C34.2812 35.0625 34.5885 35.2708 34.7969 35.5156C35.0104 35.7604 35.1172 36.0625 35.1172 36.4219C35.1172 36.8073 35 37.1484 34.7656 37.4453C34.5312 37.7422 34.2005 37.974 33.7734 38.1406C33.3516 38.3073 32.8542 38.3906 32.2812 38.3906C31.6979 38.3906 31.1745 38.3021 30.7109 38.125C30.2526 37.9427 29.8854 37.6745 29.6094 37.3203C29.3385 36.9609 29.1849 36.513 29.1484 35.9766H25.875C25.901 37.1276 26.1797 38.0938 26.7109 38.875C27.2474 39.651 27.9922 40.237 28.9453 40.6328C29.9036 41.0286 31.0286 41.2266 32.3203 41.2266C33.6224 41.2266 34.7344 41.0312 35.6562 40.6406C36.5833 40.2448 37.2917 39.6901 37.7812 38.9766C38.276 38.2578 38.526 37.4089 38.5312 36.4297C38.526 35.763 38.4036 35.1719 38.1641 34.6562C37.9297 34.1406 37.599 33.6927 37.1719 33.3125C36.7448 32.9323 36.2396 32.612 35.6562 32.3516C35.0729 32.0911 34.4323 31.8828 33.7344 31.7266L32.2969 31.3828C31.9479 31.3047 31.6198 31.2109 31.3125 31.1016C31.0052 30.987 30.7344 30.8542 30.5 30.7031C30.2656 30.5469 30.0807 30.362 29.9453 30.1484C29.8151 29.9349 29.7552 29.6849 29.7656 29.3984C29.7656 29.0547 29.8646 28.7474 30.0625 28.4766C30.2656 28.2057 30.5573 27.9948 30.9375 27.8438C31.3177 27.6875 31.7839 27.6094 32.3359 27.6094C33.1484 27.6094 33.7917 27.7839 34.2656 28.1328ZM54.0723 25H50.6895V35.1016C50.6895 35.7109 50.554 36.2526 50.2832 36.7266C50.0176 37.2005 49.64 37.5729 49.1504 37.8438C48.666 38.1146 48.0957 38.25 47.4395 38.25C46.7884 38.25 46.2181 38.1146 45.7285 37.8438C45.2389 37.5729 44.8587 37.2005 44.5879 36.7266C44.3223 36.2526 44.1895 35.7109 44.1895 35.1016V25H40.8066V35.3906C40.8066 36.5573 41.0827 37.5781 41.6348 38.4531C42.1868 39.3281 42.9603 40.0104 43.9551 40.5C44.9499 40.9844 46.1113 41.2266 47.4395 41.2266C48.7624 41.2266 49.9212 40.9844 50.916 40.5C51.9108 40.0104 52.6842 39.3281 53.2363 38.4531C53.7936 37.5781 54.0723 36.5573 54.0723 35.3906V25ZM56.8555 25V41H63.6914C64.8893 41 65.8971 40.8073 66.7148 40.4219C67.5326 40.0365 68.1497 39.513 68.5664 38.8516C68.9883 38.1849 69.1992 37.4271 69.1992 36.5781C69.1992 35.7917 69.0326 35.1146 68.6992 34.5469C68.3659 33.974 67.931 33.5286 67.3945 33.2109C66.8633 32.8932 66.293 32.7214 65.6836 32.6953V32.5391C66.2409 32.4141 66.7357 32.2031 67.168 31.9062C67.6055 31.6042 67.9492 31.2188 68.1992 30.75C68.4492 30.276 68.5742 29.7266 68.5742 29.1016C68.5742 28.2995 68.3763 27.5911 67.9805 26.9766C67.5846 26.3568 66.9935 25.8724 66.207 25.5234C65.4206 25.1745 64.4388 25 63.2617 25H56.8555ZM62.9961 38.2344H60.2383V33.9844H63.0742C63.6159 33.9844 64.082 34.0807 64.4727 34.2734C64.8685 34.4661 65.1732 34.7318 65.3867 35.0703C65.6003 35.4089 65.707 35.7995 65.707 36.2422C65.707 36.8464 65.4909 37.3307 65.0586 37.6953C64.6263 38.0547 63.9388 38.2344 62.9961 38.2344ZM62.7461 31.6953H60.2383V27.7344H62.8086C63.5586 27.7344 64.1367 27.9115 64.543 28.2656C64.9544 28.6198 65.1602 29.0859 65.1602 29.6641C65.1602 30.0859 65.0534 30.4479 64.8398 30.75C64.6315 31.0521 64.3451 31.2865 63.9805 31.4531C63.6211 31.6146 63.2096 31.6953 62.7461 31.6953ZM79.2754 28.1328C79.7494 28.4818 80.0176 28.9714 80.0801 29.6016H83.3223C83.3066 28.6484 83.0514 27.8099 82.5566 27.0859C82.0619 26.362 81.3691 25.7969 80.4785 25.3906C79.5931 24.9844 78.5566 24.7812 77.3691 24.7812C76.2025 24.7812 75.1608 24.9844 74.2441 25.3906C73.3275 25.7969 72.6061 26.362 72.0801 27.0859C71.5592 27.8099 71.3014 28.6562 71.3066 29.625C71.3014 30.8073 71.6895 31.7474 72.4707 32.4453C73.252 33.1432 74.3171 33.6562 75.666 33.9844L77.4082 34.4219C77.9915 34.5625 78.4837 34.7188 78.8848 34.8906C79.291 35.0625 79.5983 35.2708 79.8066 35.5156C80.0202 35.7604 80.127 36.0625 80.127 36.4219C80.127 36.8073 80.0098 37.1484 79.7754 37.4453C79.541 37.7422 79.2103 37.974 78.7832 38.1406C78.3613 38.3073 77.8639 38.3906 77.291 38.3906C76.7077 38.3906 76.1842 38.3021 75.7207 38.125C75.2624 37.9427 74.8952 37.6745 74.6191 37.3203C74.3483 36.9609 74.1947 36.513 74.1582 35.9766H70.8848C70.9108 37.1276 71.1895 38.0938 71.7207 38.875C72.2572 39.651 73.002 40.237 73.9551 40.6328C74.9134 41.0286 76.0384 41.2266 77.3301 41.2266C78.6322 41.2266 79.7441 41.0312 80.666 40.6406C81.5931 40.2448 82.3014 39.6901 82.791 38.9766C83.2858 38.2578 83.5358 37.4089 83.541 36.4297C83.5358 35.763 83.4134 35.1719 83.1738 34.6562C82.9395 34.1406 82.6087 33.6927 82.1816 33.3125C81.7546 32.9323 81.2494 32.612 80.666 32.3516C80.0827 32.0911 79.4421 31.8828 78.7441 31.7266L77.3066 31.3828C76.9577 31.3047 76.6296 31.2109 76.3223 31.1016C76.015 30.987 75.7441 30.8542 75.5098 30.7031C75.2754 30.5469 75.0905 30.362 74.9551 30.1484C74.8249 29.9349 74.765 29.6849 74.7754 29.3984C74.7754 29.0547 74.8744 28.7474 75.0723 28.4766C75.2754 28.2057 75.5671 27.9948 75.9473 27.8438C76.3275 27.6875 76.7936 27.6094 77.3457 27.6094C78.1582 27.6094 78.8014 27.7839 79.2754 28.1328ZM96.5117 30.6016H99.9336C99.8242 29.6745 99.5742 28.8516 99.1836 28.1328C98.7982 27.4141 98.2982 26.8073 97.6836 26.3125C97.069 25.8125 96.3633 25.4323 95.5664 25.1719C94.7747 24.9115 93.9154 24.7812 92.9883 24.7812C91.582 24.7812 90.3164 25.1042 89.1914 25.75C88.0664 26.3906 87.1758 27.3229 86.5195 28.5469C85.8633 29.7708 85.5352 31.2552 85.5352 33C85.5352 34.7396 85.8581 36.2214 86.5039 37.4453C87.1549 38.6693 88.0404 39.6042 89.1602 40.25C90.2852 40.8958 91.5612 41.2188 92.9883 41.2188C94.0143 41.2188 94.9336 41.0651 95.7461 40.7578C96.5638 40.4453 97.2669 40.0234 97.8555 39.4922C98.4492 38.9557 98.9206 38.349 99.2695 37.6719C99.6237 36.9896 99.8451 36.2812 99.9336 35.5469L96.5117 35.5312C96.4336 35.9583 96.293 36.3385 96.0898 36.6719C95.8919 37.0052 95.6419 37.2891 95.3398 37.5234C95.0378 37.7526 94.6914 37.9271 94.3008 38.0469C93.9154 38.1667 93.4961 38.2266 93.043 38.2266C92.2357 38.2266 91.5247 38.0286 90.9102 37.6328C90.2956 37.237 89.8164 36.651 89.4727 35.875C89.1341 35.099 88.9648 34.1406 88.9648 33C88.9648 31.8906 89.1341 30.9479 89.4727 30.1719C89.8112 29.3906 90.2878 28.7969 90.9023 28.3906C91.5169 27.9792 92.2383 27.7734 93.0664 27.7734C93.5247 27.7734 93.9492 27.8385 94.3398 27.9688C94.7357 28.099 95.0846 28.2865 95.3867 28.5312C95.6888 28.776 95.9362 29.0729 96.1289 29.4219C96.3216 29.7656 96.4492 30.1589 96.5117 30.6016ZM108.672 25H102.359V41H105.742V35.3281H108.212L111.242 41H114.977L111.582 34.7841C111.631 34.7629 111.679 34.7412 111.727 34.7188C112.596 34.3125 113.26 33.7292 113.719 32.9688C114.177 32.2031 114.406 31.2891 114.406 30.2266C114.406 29.1693 114.18 28.25 113.727 27.4688C113.279 26.6823 112.625 26.0755 111.766 25.6484C110.911 25.2161 109.88 25 108.672 25ZM105.742 32.6094H108.039C108.685 32.6094 109.221 32.5208 109.648 32.3438C110.076 32.1667 110.393 31.901 110.602 31.5469C110.815 31.1927 110.922 30.7526 110.922 30.2266C110.922 29.6953 110.815 29.2474 110.602 28.8828C110.393 28.5182 110.073 28.2422 109.641 28.0547C109.214 27.862 108.674 27.7656 108.023 27.7656H105.742V32.6094ZM116.797 41H120.18V25H116.797V41ZM129.369 25H122.963V41H129.799C130.997 41 132.005 40.8073 132.822 40.4219C133.64 40.0365 134.257 39.513 134.674 38.8516C135.096 38.1849 135.307 37.4271 135.307 36.5781C135.307 35.7917 135.14 35.1146 134.807 34.5469C134.473 33.974 134.038 33.5286 133.502 33.2109C132.971 32.8932 132.4 32.7214 131.791 32.6953V32.5391C132.348 32.4141 132.843 32.2031 133.275 31.9062C133.713 31.6042 134.057 31.2188 134.307 30.75C134.557 30.276 134.682 29.7266 134.682 29.1016C134.682 28.2995 134.484 27.5911 134.088 26.9766C133.692 26.3568 133.101 25.8724 132.314 25.5234C131.528 25.1745 130.546 25 129.369 25ZM129.104 38.2344H126.346V33.9844H129.182C129.723 33.9844 130.189 34.0807 130.58 34.2734C130.976 34.4661 131.281 34.7318 131.494 35.0703C131.708 35.4089 131.814 35.7995 131.814 36.2422C131.814 36.8464 131.598 37.3307 131.166 37.6953C130.734 38.0547 130.046 38.2344 129.104 38.2344ZM128.854 31.6953H126.346V27.7344H128.916C129.666 27.7344 130.244 27.9115 130.65 28.2656C131.062 28.6198 131.268 29.0859 131.268 29.6641C131.268 30.0859 131.161 30.4479 130.947 30.75C130.739 31.0521 130.452 31.2865 130.088 31.4531C129.729 31.6146 129.317 31.6953 128.854 31.6953ZM148.289 25H137.508V41H148.32V38.2109H140.891V34.3906H147.734V31.6016H140.891V27.7891H148.289V25Z" fill="white"/>
</g>
<defs>
<filter id="filter0_d_13_159" x="0.769287" y="0.553711" width="173.077" height="72.8921" filterUnits="userSpaceOnUse" color-interpolation-filters="sRGB">
<feFlood flood-opacity="0" result="BackgroundImageFix"/>
<feColorMatrix in="SourceAlpha" type="matrix" values="0 0 0 0 0 0 0 0 0 0 0 0 0 0 0 0 0 0 127 0" result="hardAlpha"/>
<feOffset dy="4"/>
<feGaussianBlur stdDeviation="2"/>
<feComposite in2="hardAlpha" operator="out"/>
<feColorMatrix type="matrix" values="0 0 0 0 0 0 0 0 0 0 0 0 0 0 0 0 0 0 0.25 0"/>
<feBlend mode="normal" in2="BackgroundImageFix" result="effect1_dropShadow_13_159"/>
<feBlend mode="normal" in="SourceGraphic" in2="effect1_dropShadow_13_159" result="shape"/>
</filter>
</defs>
</svg>
